Coordinates
version=1
nRows=27
nColumns=12
inDegrees=yes

Units are S.I. units (second, meters, Newtons, ...)
Angles are in degrees

endheader
time	SC_y	SC_z	SC_x	AC_y	AC_z	AC_x	GH_y	GH_z	GH_yy	EL_x	PS_y
       0.0              -17.16            8.9          28.98          52.54          2.022         -6.059          83.39          23.33          1.616          86.67          31.63
   0.03701              -17.16          8.903          28.98          52.54          2.019         -6.057          83.36          23.34          1.622          86.66          31.63
   0.07401              -17.16          8.906          28.98          52.53          2.017         -6.055          83.34          23.35          1.629          86.65          31.63
     0.111              -17.16           8.91          28.98          52.53          2.014         -6.053          83.31          23.35          1.637          86.63          31.62
     0.148              -17.16          8.913          28.97          52.53          2.011          -6.05          83.29          23.36          1.645          86.62          31.62
     0.185              -17.16          8.917          28.97          52.52          2.007         -6.047          83.26          23.37          1.654          86.61          31.62
     0.222              -17.16          8.922          28.97          52.52          2.004         -6.044          83.23          23.38          1.663          86.59          31.62
     0.259              -17.16          8.926          28.97          52.52            2.0         -6.041           83.2           23.4          1.672          86.57          31.62
    0.2961              -17.16          8.931          28.97          52.51          1.996         -6.038          83.16          23.41          1.683          86.55          31.61
    0.3331              -17.16          8.936          28.97          52.51          1.991         -6.034          83.12          23.42          1.694          86.54          31.61
    0.3701              -17.16          8.942          28.97           52.5          1.987          -6.03          83.08          23.43          1.706          86.51          31.61
    0.4071              -17.16          8.948          28.96           52.5          1.982         -6.026          83.04          23.45          1.719          86.49          31.61
    0.4441              -17.16          8.954          28.96          52.49          1.976         -6.022          82.99          23.46          1.733          86.47           31.6
    0.4811              -17.16          8.961          28.96          52.49           1.97         -6.017          82.94          23.48          1.748          86.44           31.6
    0.5181              -17.16          8.969          28.96          52.48          1.964         -6.012          82.89           23.5          1.765          86.41           31.6
    0.5551              -17.16          8.977          28.95          52.48          1.957         -6.006          82.83          23.52          1.782          86.38          31.59
    0.5921              -17.15          8.986          28.95          52.47          1.949           -6.0          82.77          23.54          1.802          86.35          31.59
    0.6291              -17.15          8.995          28.95          52.46          1.941         -5.993           82.7          23.57          1.823          86.31          31.59
    0.6661              -17.15          9.006          28.94          52.45          1.932         -5.986          82.62          23.59          1.846          86.27          31.58
    0.7031              -17.15          9.018          28.94          52.44          1.922         -5.978          82.54          23.62          1.871          86.23          31.58
    0.7401              -17.15           9.03          28.93          52.43          1.912         -5.969          82.45          23.65          1.898          86.18          31.57
    0.7771              -17.15          9.044          28.93          52.42            1.9         -5.959          82.35          23.69          1.929          86.13          31.56
    0.8142              -17.15           9.06          28.92          52.41          1.887         -5.948          82.24          23.73          1.962          86.07          31.56
    0.8512              -17.15          9.077          28.92          52.39          1.872         -5.936          82.11          23.77          1.999           86.0          31.55
    0.8882              -17.15          9.096          28.91          52.38          1.856         -5.923          81.98          23.81           2.04          85.93          31.54
    0.9252              -17.14          9.117          28.91          52.36          1.838         -5.908          81.82          23.87          2.086          85.85          31.53
    0.9622              -17.14          9.141           28.9          52.34          1.818         -5.892          81.65          23.93          2.138          85.76          31.52
